<svg width="288.000244" height="26.281494" viewBox="0 0 288 26.2815" fill="none" xmlns="http://www.w3.org/2000/svg" xmlns:xlink="http://www.w3.org/1999/xlink">
	<desc>
			Created with Pixso.
	</desc>
	<defs/>
	<path id="Vector" d="M45.66 0L49.54 0L51.34 20.19L51.41 20.19L53.32 0L57.71 0L59.62 20.19L59.69 20.19L61.49 0L64.97 0L62.36 26.28L57.35 26.28L55.51 8.56L55.44 8.56L53.61 26.28L48.26 26.28L45.66 0Z" fill="#2F2F2F" fill-opacity="1.000000" fill-rule="nonzero"/>
	<path id="Vector" d="M69.62 0L75.08 0L79.25 26.28L75.22 26.28L74.49 21.06L74.49 21.13L69.91 21.13L69.18 26.28L65.44 26.28L69.62 0ZM74.01 17.57L72.22 4.58L72.15 4.58L70.39 17.57L74.01 17.57Z" fill="#2F2F2F" fill-opacity="1.000000" fill-rule="nonzero"/>
	<path id="Vector" d="M81.21 0L85.24 0L85.24 22.52L91.87 22.52L91.87 26.28L81.21 26.28L81.21 0Z" fill="#2F2F2F" fill-opacity="1.000000" fill-rule="nonzero"/>
	<path id="Vector" d="M93.8 0L97.83 0L97.83 22.52L104.46 22.52L104.46 26.28L93.8 26.28L93.8 0Z" fill="#2F2F2F" fill-opacity="1.000000" fill-rule="nonzero"/>
	<path id="Vector" d="M106.4 0L117.39 0L117.39 3.75L110.43 3.75L110.43 10.7L115.96 10.7L115.96 14.45L110.43 14.45L110.43 22.52L117.39 22.52L117.39 26.28L106.4 26.28L106.4 0Z" fill="#2F2F2F" fill-opacity="1.000000" fill-rule="nonzero"/>
	<path id="Vector" d="M122.86 3.75L118.64 3.75L118.64 0L131.1 0L131.1 3.75L126.89 3.75L126.89 26.28L122.86 26.28L122.86 3.75Z" fill="#2F2F2F" fill-opacity="1.000000" fill-rule="nonzero"/>
	<path id="Vector" d="M16.21 10.7L16.21 0L20.24 0L20.24 0L28.85 0L28.85 3.75L28.85 3.75L28.85 15.01L28.85 15.01L28.85 18.77L20.24 18.77L20.24 26.28L16.21 26.28L16.21 15.01L24.82 15.01L24.82 3.75L20.24 3.75L20.24 10.7L16.21 10.7ZM4.17 0L9.63 0L13.81 26.28L9.78 26.28L9.04 21.06L9.04 21.13L4.46 21.13L3.73 26.28L0 26.28L4.17 0ZM31.44 0L35.47 0L35.47 11.07L40.6 0L44.63 0L39.83 9.64L44.7 26.28L40.49 26.28L37.08 14.56L35.47 17.9L35.47 26.28L31.44 26.28L31.44 0ZM8.57 17.57L6.77 4.58L6.7 4.58L4.94 17.57L8.57 17.57ZM28.85 26.28L24.82 26.28L24.82 22.52L28.85 22.52L28.85 26.28Z" fill="#F96D6B" fill-opacity="1.000000" fill-rule="evenodd"/>
	<line id="Line 1" x1="146.916443" y1="0.000000" x2="146.916443" y2="26.280762" stroke="#2F2F2F" stroke-opacity="1.000000" stroke-width="1.371434"/>
	<path id="BUSINESS" d="M198.4 16.18L200.31 16.18C200.47 16.73 200.72 17.21 201.07 17.64C201.87 18.6 203.03 19.08 204.56 19.08C205.77 19.08 206.69 18.83 207.32 18.35Q207.89 17.91 208.12 17.34Q208.27 16.96 208.27 16.5C208.27 15.88 208.02 15.38 207.51 15C207 14.63 206.28 14.31 205.34 14.04C205.17 13.98 204.9 13.9 204.51 13.8C204.15 13.7 203.86 13.63 203.64 13.57C203.43 13.51 203.15 13.43 202.79 13.31C202.44 13.2 202.16 13.1 201.95 13.01C201.73 12.91 201.48 12.79 201.18 12.65Q200.73 12.41 200.46 12.2C200.29 12.05 200.1 11.88 199.89 11.68C199.69 11.47 199.53 11.25 199.42 11.02C199.32 10.79 199.23 10.53 199.14 10.25C199.07 9.96 199.04 9.65 199.04 9.33C199.04 8.15 199.52 7.15 200.5 6.3C201.48 5.46 202.76 5.04 204.34 5.04C206.44 5.04 208.03 5.74 209.1 7.14C209.55 7.75 209.88 8.45 210.08 9.22L208.17 9.22C208.04 8.82 207.81 8.43 207.49 8.04C206.71 7.25 205.66 6.86 204.34 6.86C203.28 6.86 202.45 7.1 201.84 7.59C201.24 8.06 200.95 8.64 200.95 9.33Q200.95 9.58 201.02 9.8Q201.09 10.03 201.22 10.23C201.41 10.5 201.63 10.73 201.88 10.91C202.14 11.08 202.49 11.26 202.94 11.45C203.41 11.62 203.82 11.75 204.18 11.85C204.53 11.95 205 12.08 205.58 12.22C206.23 12.39 206.8 12.58 207.3 12.8C207.79 13.01 208.27 13.28 208.74 13.61C209.21 13.94 209.56 14.35 209.8 14.83C210.06 15.32 210.18 15.88 210.18 16.5C210.18 17.73 209.68 18.78 208.68 19.63Q207.17 20.9 204.56 20.9Q202.2 20.9 200.66 19.77Q199.97 19.27 199.44 18.54C198.94 17.87 198.6 17.08 198.4 16.18ZM259.23 16.18L261.14 16.18C261.3 16.73 261.55 17.21 261.91 17.64C262.7 18.6 263.86 19.08 265.39 19.08C266.6 19.08 267.53 18.83 268.15 18.35C268.79 17.86 269.1 17.25 269.1 16.5C269.1 15.88 268.85 15.38 268.34 15C267.83 14.63 267.11 14.31 266.17 14.04C266 13.98 265.73 13.9 265.35 13.8C264.98 13.7 264.69 13.63 264.47 13.57C264.26 13.51 263.98 13.43 263.63 13.31C263.27 13.2 262.99 13.1 262.78 13.01C262.56 12.91 262.31 12.79 262.01 12.65Q261.57 12.41 261.29 12.2C261.12 12.05 260.93 11.88 260.72 11.68C260.52 11.47 260.36 11.25 260.25 11.02C260.15 10.79 260.06 10.53 259.97 10.25Q259.87 9.82 259.87 9.33Q259.87 8.69 260.06 8.12Q260.4 7.11 261.33 6.3C262.31 5.46 263.59 5.04 265.18 5.04C267.27 5.04 268.86 5.74 269.93 7.14Q270.07 7.33 270.2 7.54Q270.67 8.31 270.91 9.22L269 9.22C268.87 8.82 268.64 8.43 268.32 8.04Q268.06 7.78 267.77 7.58Q266.72 6.86 265.18 6.86C264.11 6.86 263.28 7.1 262.67 7.59C262.07 8.06 261.78 8.64 261.78 9.33Q261.78 9.58 261.85 9.8Q261.92 10.03 262.05 10.23C262.24 10.5 262.46 10.73 262.71 10.91C262.97 11.08 263.32 11.26 263.77 11.45C264.24 11.62 264.65 11.75 265.01 11.85C265.36 11.95 265.83 12.08 266.41 12.22C267.06 12.39 267.63 12.58 268.13 12.8C268.62 13.01 269.1 13.28 269.57 13.61C270.04 13.94 270.39 14.35 270.63 14.83C270.89 15.32 271.01 15.88 271.01 16.5C271.01 17.73 270.51 18.78 269.51 19.63C268.5 20.48 267.13 20.9 265.39 20.9C263.11 20.9 261.4 20.11 260.27 18.54C259.77 17.87 259.43 17.08 259.23 16.18ZM276.21 16.18L278.12 16.18Q278.26 16.67 278.51 17.09L278.51 17.09Q278.67 17.38 278.89 17.64C279.68 18.6 280.84 19.08 282.37 19.08Q284.19 19.08 285.13 18.35C285.77 17.86 286.08 17.25 286.08 16.5C286.08 15.88 285.83 15.38 285.32 15C284.81 14.63 284.09 14.31 283.15 14.04C282.98 13.98 282.71 13.9 282.32 13.8C281.96 13.7 281.67 13.63 281.46 13.57C281.24 13.51 280.96 13.43 280.6 13.31C280.25 13.2 279.97 13.1 279.76 13.01C279.54 12.91 279.29 12.79 278.99 12.65Q278.55 12.41 278.27 12.2C278.1 12.05 277.91 11.88 277.7 11.68C277.5 11.47 277.34 11.25 277.23 11.02C277.13 10.79 277.04 10.53 276.95 10.25C276.88 9.96 276.85 9.65 276.85 9.33Q276.85 8.69 277.04 8.12Q277.38 7.11 278.31 6.3C279.29 5.46 280.57 5.04 282.16 5.04C284.25 5.04 285.84 5.74 286.91 7.14Q287.06 7.33 287.18 7.54Q287.65 8.31 287.89 9.22L285.98 9.22Q285.79 8.62 285.3 8.04C284.52 7.25 283.47 6.86 282.16 6.86C281.09 6.86 280.26 7.1 279.65 7.59C279.06 8.06 278.76 8.64 278.76 9.33Q278.76 9.58 278.83 9.8Q278.9 10.03 279.03 10.23C279.22 10.5 279.44 10.73 279.69 10.91C279.95 11.08 280.3 11.26 280.75 11.45C281.22 11.62 281.63 11.75 281.99 11.85C282.34 11.95 282.81 12.08 283.39 12.22C284.04 12.39 284.61 12.58 285.11 12.8C285.6 13.01 286.08 13.28 286.55 13.61C287.02 13.94 287.37 14.35 287.61 14.83C287.87 15.32 288 15.88 288 16.5C288 17.73 287.49 18.78 286.49 19.63C285.48 20.48 284.11 20.9 282.37 20.9C280.09 20.9 278.38 20.11 277.25 18.54Q276.51 17.53 276.21 16.18ZM162.72 20.47L162.72 5.47L169.83 5.47Q171.43 5.47 172.51 6.21Q172.76 6.38 172.97 6.58Q173.56 7.11 173.86 7.77Q174.18 8.47 174.18 9.33Q174.18 10.34 173.75 11.11Q173.5 11.54 173.12 11.9C172.8 12.18 172.44 12.4 172.06 12.54L172.06 12.65Q172.31 12.7 172.54 12.78L172.54 12.78Q173.02 12.95 173.44 13.25Q173.93 13.6 174.25 14.08Q174.82 14.94 174.82 16.18C174.82 17.45 174.37 18.49 173.48 19.29Q172.14 20.47 169.72 20.47L162.72 20.47ZM180.88 14.79L180.88 5.47L182.79 5.47L182.79 14.79C182.79 16.1 183.15 17.15 183.87 17.92Q184.23 18.31 184.67 18.56Q185.54 19.08 186.72 19.08C187.89 19.08 188.84 18.69 189.56 17.92C190.28 17.15 190.64 16.1 190.64 14.79L190.64 5.47L192.56 5.47L192.56 14.79C192.56 16.65 192.02 18.13 190.94 19.25C189.88 20.35 188.47 20.9 186.72 20.9C184.96 20.9 183.54 20.35 182.47 19.25Q182.18 18.95 181.95 18.62L181.95 18.62Q180.88 17.08 180.88 14.79ZM216.23 20.47L216.23 5.47L218.14 5.47L218.14 20.47L216.23 20.47ZM224.94 20.47L224.94 5.47L227.7 5.47L235 18.11L235.04 18.11L235.02 17.9L235.02 5.47L236.93 5.47L236.93 20.47L234.17 20.47L226.87 7.83L226.83 7.83L226.85 8.04L226.85 20.45L224.94 20.47ZM243.72 20.47L243.72 5.47L254.13 5.47L254.13 7.29L245.63 7.29L245.63 12L252.53 12L252.53 13.83L245.63 13.83L245.63 18.65L254.13 18.65L254.13 20.47L243.72 20.47ZM164.63 11.79L169.72 11.79Q170.84 11.79 171.51 11.24Q171.55 11.21 171.59 11.17Q171.88 10.9 172.04 10.57Q172.27 10.12 172.27 9.54Q172.27 8.94 172.02 8.48Q171.86 8.18 171.59 7.93Q171.52 7.87 171.45 7.81Q170.79 7.29 169.72 7.29L164.63 7.29L164.63 11.79ZM164.63 18.65L169.72 18.65Q171.25 18.65 172.08 17.96C172.63 17.5 172.91 16.91 172.91 16.18C172.91 15.4 172.63 14.78 172.08 14.32Q171.27 13.61 169.72 13.61L164.63 13.61L164.63 18.65Z" fill="#2F2F2F" fill-opacity="1.000000" fill-rule="evenodd"/>
</svg>
