<svg width="100.000244" height="38.000000" viewBox="0 0 100 38" fill="none" xmlns="http://www.w3.org/2000/svg" xmlns:xlink="http://www.w3.org/1999/xlink">
	<desc>
			Created with Pixso.
	</desc>
	<defs/>
	<path id="Vector" d="M34.83 0L37.79 0L39.16 15.37L39.21 15.37L40.67 0L44.02 0L45.47 15.37L45.53 15.37L46.9 0L49.55 0L47.57 19.99L43.74 19.99L42.34 6.51L42.29 6.51L40.89 19.99L36.81 19.99L34.83 0Z" fill="#2F2F2F" fill-opacity="1.000000" fill-rule="nonzero"/>
	<path id="Vector" d="M53.1 0L57.26 0L60.45 19.99L57.38 19.99L56.82 16.02L56.82 16.08L53.32 16.08L52.76 19.99L49.91 19.99L53.1 0ZM56.45 13.37L55.08 3.48L55.03 3.48L53.69 13.37L56.45 13.37Z" fill="#2F2F2F" fill-opacity="1.000000" fill-rule="nonzero"/>
	<path id="Vector" d="M61.94 0L65.01 0L65.01 17.14L70.07 17.14L70.07 19.99L61.94 19.99L61.94 0Z" fill="#2F2F2F" fill-opacity="1.000000" fill-rule="nonzero"/>
	<path id="Vector" d="M71.55 0L74.62 0L74.62 17.14L79.68 17.14L79.68 19.99L71.55 19.99L71.55 0Z" fill="#2F2F2F" fill-opacity="1.000000" fill-rule="nonzero"/>
	<path id="Vector" d="M81.15 0L89.54 0L89.54 2.85L84.23 2.85L84.23 8.14L88.45 8.14L88.45 10.99L84.23 10.99L84.23 17.14L89.54 17.14L89.54 19.99L81.15 19.99L81.15 0Z" fill="#2F2F2F" fill-opacity="1.000000" fill-rule="nonzero"/>
	<path id="Vector" d="M93.71 2.85L90.49 2.85L90.49 0L100 0L100 2.85L96.78 2.85L96.78 19.99L93.71 19.99L93.71 2.85Z" fill="#2F2F2F" fill-opacity="1.000000" fill-rule="nonzero"/>
	<path id="Vector" d="M12.36 8.14L12.36 0L15.43 0L15.43 0L22 0L22 2.85L22 2.85L22 11.42L22 11.42L22 14.28L15.43 14.28L15.43 19.99L12.36 19.99L12.36 11.42L18.93 11.42L18.93 2.85L15.43 2.85L15.43 8.14L12.36 8.14ZM3.18 0L7.34 0L10.53 19.99L7.46 19.99L6.9 16.02L6.9 16.08L3.4 16.08L2.85 19.99L0 19.99L3.18 0ZM23.98 0L27.05 0L27.05 8.42L30.97 0L34.04 0L30.38 7.34L34.1 19.99L30.88 19.99L28.28 11.08L27.05 13.62L27.05 19.99L23.98 19.99L23.98 0ZM6.53 13.37L5.16 3.48L5.11 3.48L3.77 13.37L6.53 13.37ZM22 20L18.93 20L18.93 17.14L22 17.14L22 20Z" fill="#F96D6B" fill-opacity="1.000000" fill-rule="evenodd"/>
	<path id="BUSINESS" d="M21.07 35.02L22.2 35.02C22.29 35.36 22.44 35.67 22.65 35.94C23.12 36.54 23.81 36.85 24.71 36.85C25.43 36.85 25.97 36.69 26.34 36.39C26.72 36.08 26.9 35.69 26.9 35.22C26.9 34.83 26.75 34.51 26.45 34.28C26.15 34.04 25.73 33.84 25.17 33.67C25.07 33.63 24.91 33.59 24.68 33.52C24.47 33.46 24.3 33.41 24.17 33.37Q23.98 33.32 23.67 33.21C23.46 33.14 23.29 33.08 23.17 33.02C23.04 32.96 22.89 32.88 22.72 32.79C22.54 32.69 22.4 32.6 22.29 32.51C22.19 32.42 22.08 32.31 21.95 32.18C21.83 32.05 21.74 31.91 21.67 31.77C21.62 31.62 21.56 31.46 21.51 31.28Q21.45 31.01 21.45 30.7Q21.45 30.25 21.59 29.85Q21.8 29.26 22.31 28.79Q22.47 28.65 22.65 28.53Q23.44 28 24.58 28C25.82 28 26.76 28.44 27.39 29.32C27.66 29.71 27.85 30.14 27.97 30.63L26.84 30.63Q26.73 30.25 26.44 29.89Q26.24 29.67 26.01 29.52L26.01 29.52Q25.42 29.14 24.58 29.14Q23.64 29.14 23.1 29.6Q22.79 29.87 22.67 30.2Q22.58 30.43 22.58 30.7Q22.58 30.87 22.63 31.03Q22.67 31.15 22.74 31.27C22.85 31.44 22.98 31.58 23.13 31.7C23.28 31.81 23.49 31.92 23.76 32.04C24.03 32.14 24.28 32.23 24.48 32.29C24.69 32.36 24.97 32.43 25.31 32.52C25.7 32.63 26.04 32.75 26.33 32.89C26.62 33.02 26.9 33.19 27.18 33.4C27.46 33.61 27.67 33.86 27.81 34.17C27.96 34.48 28.03 34.83 28.03 35.22C28.03 36 27.74 36.66 27.14 37.2Q27.1 37.24 27.05 37.28L27.05 37.28Q26.17 38 24.71 38C23.36 38 22.36 37.5 21.69 36.51C21.39 36.09 21.19 35.59 21.07 35.02ZM57 35.02L58.13 35.02Q58.23 35.4 58.43 35.72L58.43 35.72Q58.5 35.83 58.58 35.94C59.05 36.54 59.74 36.85 60.64 36.85C61.36 36.85 61.9 36.69 62.27 36.39C62.65 36.08 62.84 35.69 62.84 35.22C62.84 34.83 62.69 34.51 62.38 34.28C62.08 34.04 61.66 33.84 61.11 33.67C61 33.63 60.84 33.59 60.62 33.52C60.4 33.46 60.23 33.41 60.1 33.37C59.98 33.34 59.81 33.28 59.6 33.21C59.39 33.14 59.22 33.08 59.1 33.02C58.97 32.96 58.82 32.88 58.65 32.79C58.47 32.69 58.33 32.6 58.22 32.51C58.12 32.42 58.01 32.31 57.88 32.18C57.76 32.05 57.67 31.91 57.61 31.77C57.55 31.62 57.49 31.46 57.44 31.28C57.4 31.1 57.38 30.9 57.38 30.7C57.38 29.96 57.67 29.32 58.25 28.79C58.82 28.26 59.58 28 60.52 28C61.75 28 62.69 28.44 63.33 29.32C63.59 29.71 63.79 30.14 63.9 30.63L62.77 30.63C62.7 30.38 62.56 30.13 62.37 29.89C61.91 29.39 61.29 29.14 60.52 29.14C59.89 29.14 59.4 29.3 59.04 29.6C58.68 29.9 58.51 30.27 58.51 30.7C58.51 30.9 58.56 31.09 58.67 31.27C58.78 31.44 58.91 31.58 59.06 31.7Q59.29 31.86 59.69 32.04C59.96 32.14 60.21 32.23 60.42 32.29C60.62 32.36 60.9 32.43 61.24 32.52C61.63 32.63 61.97 32.75 62.26 32.89C62.55 33.02 62.84 33.19 63.11 33.4C63.39 33.61 63.6 33.86 63.74 34.17C63.89 34.48 63.97 34.83 63.97 35.22C63.97 36 63.67 36.66 63.07 37.2Q63.03 37.24 62.98 37.28L62.98 37.28Q62.1 38 60.64 38C59.29 38 58.29 37.5 57.62 36.51C57.33 36.09 57.12 35.59 57 35.02ZM67.03 35.02L68.16 35.02C68.25 35.36 68.4 35.67 68.61 35.94C69.08 36.54 69.77 36.85 70.67 36.85C71.39 36.85 71.93 36.69 72.3 36.39C72.68 36.08 72.87 35.69 72.87 35.22C72.87 34.83 72.72 34.51 72.41 34.28C72.11 34.04 71.69 33.84 71.14 33.67C71.03 33.63 70.87 33.59 70.65 33.52C70.43 33.46 70.26 33.41 70.13 33.37C70.01 33.34 69.84 33.28 69.63 33.21C69.42 33.14 69.25 33.08 69.13 33.02C69 32.96 68.85 32.88 68.68 32.79C68.5 32.69 68.36 32.6 68.25 32.51C68.15 32.42 68.04 32.31 67.91 32.18C67.79 32.05 67.7 31.91 67.64 31.77C67.58 31.62 67.52 31.46 67.47 31.28C67.43 31.1 67.41 30.9 67.41 30.7C67.41 29.96 67.7 29.32 68.28 28.79Q68.43 28.65 68.61 28.53Q69.4 28 70.55 28C71.78 28 72.72 28.44 73.36 29.32C73.62 29.71 73.82 30.14 73.93 30.63L72.8 30.63C72.73 30.38 72.59 30.13 72.4 29.89C71.94 29.39 71.32 29.14 70.55 29.14Q69.6 29.14 69.07 29.6C68.71 29.9 68.54 30.27 68.54 30.7C68.54 30.9 68.59 31.09 68.7 31.27C68.81 31.44 68.94 31.58 69.09 31.7C69.24 31.81 69.45 31.92 69.72 32.04C69.99 32.14 70.24 32.23 70.45 32.29C70.65 32.36 70.93 32.43 71.27 32.52C71.66 32.63 72 32.75 72.29 32.89C72.58 33.02 72.87 33.19 73.14 33.4C73.42 33.61 73.63 33.86 73.77 34.17Q74 34.63 74 35.22Q74 35.74 73.82 36.19Q73.6 36.75 73.1 37.2C72.51 37.73 71.7 38 70.67 38Q69.39 38 68.52 37.4Q68.02 37.05 67.65 36.51C67.36 36.09 67.15 35.59 67.03 35.02ZM0 37.72L0 28.27L4.2 28.27Q5.06 28.27 5.67 28.66Q5.88 28.79 6.05 28.97Q6.36 29.26 6.53 29.62Q6.77 30.1 6.77 30.7Q6.77 31.4 6.46 31.92Q6.33 32.14 6.14 32.32C5.95 32.5 5.74 32.63 5.51 32.72L5.51 32.79C5.81 32.86 6.08 32.98 6.33 33.17Q6.57 33.36 6.74 33.6Q7.14 34.16 7.14 35.02C7.14 35.82 6.88 36.48 6.35 36.98Q6.32 37.02 6.28 37.05Q5.49 37.72 4.13 37.72L0 37.72ZM10.72 34.14L10.72 28.27L11.85 28.27L11.85 34.14Q11.85 35.32 12.43 36.04Q12.46 36.08 12.49 36.12Q12.74 36.41 13.06 36.58Q13.54 36.85 14.17 36.85C14.87 36.85 15.43 36.6 15.85 36.12C16.28 35.63 16.49 34.97 16.49 34.14L16.49 28.27L17.62 28.27L17.62 34.14C17.62 35.31 17.3 36.25 16.67 36.95C16.04 37.65 15.21 38 14.17 38C13.13 38 12.3 37.65 11.66 36.95C11.04 36.25 10.72 35.31 10.72 34.14ZM31.6 37.72L31.6 28.27L32.73 28.27L32.73 37.72L31.6 37.72ZM36.75 37.72L36.75 28.27L38.38 28.27L42.69 36.24L42.72 36.24L42.7 36.1L42.7 28.27L43.83 28.27L43.83 37.72L42.2 37.72L37.89 29.75L37.86 29.75L37.88 29.89L37.88 37.71L36.75 37.72ZM47.84 37.72L47.84 28.27L53.99 28.27L53.99 29.41L48.97 29.41L48.97 32.39L53.05 32.39L53.05 33.54L48.97 33.54L48.97 36.58L53.99 36.58L53.99 37.72L47.84 37.72ZM1.12 32.25L4.13 32.25C4.6 32.25 4.97 32.12 5.24 31.86Q5.38 31.72 5.47 31.55Q5.64 31.23 5.64 30.83Q5.64 30.42 5.46 30.11Q5.37 29.95 5.24 29.82Q5.17 29.75 5.09 29.69Q4.72 29.41 4.13 29.41L1.12 29.41L1.12 32.25ZM1.12 36.58L4.13 36.58C4.74 36.58 5.2 36.43 5.53 36.14Q5.73 35.96 5.85 35.73Q6.02 35.42 6.02 35.02C6.02 34.53 5.85 34.13 5.53 33.85Q5.05 33.4 4.13 33.4L1.12 33.4L1.12 36.58Z" fill="#2F2F2F" fill-opacity="1.000000" fill-rule="evenodd"/>
</svg>
