<svg width="27.000000" height="21.000000" viewBox="0 0 27 21" fill="none" xmlns="http://www.w3.org/2000/svg" xmlns:xlink="http://www.w3.org/1999/xlink">
	<desc>
			Created with Pixso.
	</desc>
	<defs/>
	<path id="Vector" d="M26.33 5.47L26.33 16.33C26.33 17.44 25.9 18.5 25.14 19.3C24.38 20.11 23.35 20.59 22.24 20.66L21.99 20.66L3.99 20.66C2.89 20.66 1.82 20.24 1.02 19.48C0.21 18.72 -0.27 17.68 -0.33 16.57L-0.34 16.33L-0.34 5.47L12.53 12.21C12.67 12.29 12.83 12.33 12.99 12.33C13.16 12.33 13.32 12.29 13.46 12.21L26.33 5.47ZM3.99 -0.67L21.99 -0.67C23.07 -0.67 24.1 -0.27 24.9 0.45C25.7 1.17 26.2 2.16 26.31 3.23L12.99 10.2L-0.32 3.23C-0.21 2.2 0.25 1.25 1 0.53C1.74 -0.18 2.72 -0.61 3.75 -0.66L3.99 -0.67L21.99 -0.67L3.99 -0.67Z" fill="#FFFFFF" fill-opacity="0.600000" fill-rule="nonzero"/>
</svg>
