<svg width="25.000000" height="25.000000" viewBox="0 0 25 25" fill="none" xmlns="http://www.w3.org/2000/svg" xmlns:xlink="http://www.w3.org/1999/xlink">
	<desc>
			Created with Pixso.
	</desc>
	<defs/>
	<path id="Vector" d="M23.61 14.08C23.74 13.37 23.81 12.65 23.81 11.94C23.81 10.34 23.5 8.8 22.88 7.34C22.29 5.94 21.43 4.67 20.35 3.59C19.27 2.51 18 1.65 16.6 1.06C15.14 0.44 13.6 0.13 12 0.13C11.25 0.13 10.5 0.2 9.77 0.35C8.76 -0.19 7.63 -0.47 6.48 -0.47C4.62 -0.47 2.86 0.25 1.54 1.57C0.89 2.22 0.38 2.99 0.02 3.84C-0.33 4.69 -0.51 5.6 -0.5 6.51C-0.5 7.7 -0.2 8.87 0.37 9.9C0.26 10.57 0.19 11.25 0.19 11.94C0.19 13.53 0.51 15.08 1.12 16.53C1.72 17.94 2.57 19.2 3.65 20.28C4.74 21.37 6 22.22 7.4 22.81C8.86 23.43 10.4 23.74 12 23.74C12.69 23.74 13.39 23.68 14.07 23.55C15.11 24.14 16.29 24.46 17.5 24.46C19.37 24.46 21.13 23.74 22.45 22.41C23.77 21.1 24.49 19.34 24.49 17.47C24.5 16.29 24.19 15.11 23.61 14.08ZM12.05 19.17C7.85 19.17 5.98 17.1 5.98 15.56C5.98 14.77 6.56 14.21 7.37 14.21C9.16 14.21 8.7 16.79 12.05 16.79C13.76 16.79 14.71 15.86 14.71 14.91C14.71 14.34 14.43 13.7 13.3 13.42L9.57 12.49C6.56 11.74 6.02 10.11 6.02 8.59C6.02 5.42 9 4.23 11.8 4.23C14.39 4.23 17.43 5.65 17.43 7.55C17.43 8.37 16.72 8.84 15.92 8.84C14.39 8.84 14.67 6.72 11.58 6.72C10.05 6.72 9.2 7.42 9.2 8.41C9.2 9.4 10.41 9.71 11.46 9.95L14.23 10.57C17.25 11.24 18.02 13.01 18.02 14.67C18.02 17.24 16.04 19.17 12.05 19.17Z" fill="#FFFFFF" fill-opacity="0.600000" fill-rule="nonzero"/>
</svg>
