<svg width="183.000000" height="37.000000" viewBox="0 0 183 37" fill="none" xmlns="http://www.w3.org/2000/svg" xmlns:xlink="http://www.w3.org/1999/xlink">
	<desc>
			Created with Pixso.
	</desc>
	<defs/>
	<path id="Vector" d="M63.42 0L68.81 0L71.3 28.02L71.4 28.02L74.05 0L80.16 0L82.8 28.02L82.9 28.02L85.4 0L90.23 0L86.62 36.46L79.65 36.46L77.1 11.87L77 11.87L74.46 36.46L67.03 36.46L63.42 0Z" fill="#FFFFFF" fill-opacity="1.000000" fill-rule="nonzero"/>
	<path id="Vector" d="M96.69 0L104.27 0L110.08 36.46L104.48 36.46L103.46 29.22L103.46 29.32L97.1 29.32L96.08 36.46L90.89 36.46L96.69 0ZM102.8 24.37L100.31 6.35L100.2 6.35L97.76 24.37L102.8 24.37Z" fill="#FFFFFF" fill-opacity="1.000000" fill-rule="nonzero"/>
	<path id="Vector" d="M112.79 0L118.39 0L118.39 31.25L127.6 31.25L127.6 36.46L112.79 36.46L112.79 0Z" fill="#FFFFFF" fill-opacity="1.000000" fill-rule="nonzero"/>
	<path id="Vector" d="M130.28 0L135.88 0L135.88 31.25L145.09 31.25L145.09 36.46L130.28 36.46L130.28 0Z" fill="#FFFFFF" fill-opacity="1.000000" fill-rule="nonzero"/>
	<path id="Vector" d="M147.77 0L163.04 0L163.04 5.2L153.37 5.2L153.37 14.84L161.05 14.84L161.05 20.05L153.37 20.05L153.37 31.25L163.04 31.25L163.04 36.46L147.77 36.46L147.77 0Z" fill="#FFFFFF" fill-opacity="1.000000" fill-rule="nonzero"/>
	<path id="Vector" d="M170.63 5.2L164.78 5.2L164.78 0L182.08 0L182.08 5.2L176.23 5.2L176.23 36.46L170.63 36.46L170.63 5.2Z" fill="#FFFFFF" fill-opacity="1.000000" fill-rule="nonzero"/>
	<path id="Vector" d="M22.51 14.84L22.51 0L28.11 0L28.11 0L40.07 0L40.07 5.2L40.07 5.2L40.07 20.83L40.07 20.83L40.07 26.04L28.11 26.04L28.11 36.46L22.51 36.46L22.51 20.83L34.47 20.83L34.47 5.2L28.11 5.2L28.11 14.84L22.51 14.84ZM5.8 0L13.38 0L19.18 36.46L13.58 36.46L12.56 29.22L12.56 29.32L6.2 29.32L5.19 36.46L0 36.46L5.8 0ZM43.67 0L49.27 0L49.27 15.36L56.39 0L61.99 0L55.32 13.38L62.09 36.46L56.24 36.46L51.51 20.21L49.27 24.84L49.27 36.46L43.67 36.46L43.67 0ZM11.9 24.37L9.41 6.35L9.31 6.35L6.86 24.37L11.9 24.37ZM40.07 36.46L34.47 36.46L34.47 31.25L40.07 31.25L40.07 36.46Z" fill="#F96D6B" fill-opacity="1.000000" fill-rule="evenodd"/>
</svg>
