<svg width="526.000000" height="48.000000" viewBox="0 0 526 48" fill="none" xmlns="http://www.w3.org/2000/svg" xmlns:xlink="http://www.w3.org/1999/xlink">
	<desc>
			Created with Pixso.
	</desc>
	<defs/>
	<path id="Vector" d="M83.39 0L90.49 0L93.77 36.89L93.9 36.89L97.38 0L105.41 0L108.89 36.89L109.02 36.89L112.3 0L118.66 0L113.91 47.99L104.74 47.99L101.39 15.63L101.26 15.63L97.91 47.99L88.15 47.99L83.39 0Z" fill="#2F2F2F" fill-opacity="1.000000" fill-rule="nonzero"/>
	<path id="Vector" d="M127.15 0L137.12 0L144.75 47.99L137.39 47.99L136.05 38.46L136.05 38.6L127.69 38.6L126.35 47.99L119.53 47.99L127.15 0ZM135.18 32.09L131.9 8.36L131.77 8.36L128.56 32.09L135.18 32.09Z" fill="#2F2F2F" fill-opacity="1.000000" fill-rule="nonzero"/>
	<path id="Vector" d="M148.32 0L155.68 0L155.68 41.14L167.79 41.14L167.79 47.99L148.32 47.99L148.32 0Z" fill="#2F2F2F" fill-opacity="1.000000" fill-rule="nonzero"/>
	<path id="Vector" d="M171.32 0L178.68 0L178.68 41.14L190.79 41.14L190.79 47.99L171.32 47.99L171.32 0Z" fill="#2F2F2F" fill-opacity="1.000000" fill-rule="nonzero"/>
	<path id="Vector" d="M194.32 0L214.4 0L214.4 6.85L201.68 6.85L201.68 19.54L211.79 19.54L211.79 26.39L201.68 26.39L201.68 41.14L214.4 41.14L214.4 47.99L194.32 47.99L194.32 0Z" fill="#2F2F2F" fill-opacity="1.000000" fill-rule="nonzero"/>
	<path id="Vector" d="M224.39 6.85L216.69 6.85L216.69 0L239.44 0L239.44 6.85L231.75 6.85L231.75 47.99L224.39 47.99L224.39 6.85Z" fill="#2F2F2F" fill-opacity="1.000000" fill-rule="nonzero"/>
	<path id="Vector" d="M29.6 19.54L29.6 0L36.96 0L36.96 0L52.69 0L52.69 6.85L52.69 6.85L52.69 27.42L52.69 27.42L52.69 34.28L36.96 34.28L36.96 47.99L29.6 47.99L29.6 27.42L45.33 27.42L45.33 6.85L36.96 6.85L36.96 19.54L29.6 19.54ZM7.62 0L17.59 0L25.22 47.99L17.86 47.99L16.52 38.46L16.52 38.6L8.16 38.6L6.82 47.99L0 47.99L7.62 0ZM57.43 0L64.79 0L64.79 20.22L74.16 0L81.52 0L72.75 17.62L81.65 47.99L73.96 47.99L67.73 26.6L64.79 32.7L64.79 47.99L57.43 47.99L57.43 0ZM15.65 32.09L12.37 8.36L12.24 8.36L9.03 32.09L15.65 32.09ZM52.69 48L45.33 48L45.33 41.14L52.69 41.14L52.69 48Z" fill="#F96D6B" fill-opacity="1.000000" fill-rule="evenodd"/>
	<line id="Line 1" x1="267.759766" y1="0.000000" x2="267.759766" y2="47.999023" stroke="#2F2F2F" stroke-opacity="1.000000" stroke-width="1.371434"/>
	<path id="BUSINESS" d="M362.36 29.56L365.85 29.56C366.13 30.55 366.6 31.44 367.24 32.22C368.69 33.97 370.81 34.85 373.6 34.85Q376.94 34.85 378.65 33.51Q379.69 32.72 380.11 31.68Q380.39 30.97 380.39 30.15C380.39 29 379.93 28.09 379 27.41C378.06 26.73 376.75 26.14 375.04 25.65C374.73 25.54 374.22 25.4 373.53 25.22C372.85 25.03 372.32 24.89 371.94 24.79C371.55 24.68 371.03 24.53 370.39 24.32C369.74 24.11 369.22 23.93 368.83 23.77C368.45 23.59 367.98 23.36 367.44 23.1C366.89 22.82 366.46 22.54 366.12 22.28C365.81 22.02 365.46 21.71 365.07 21.34C364.71 20.95 364.43 20.55 364.22 20.13C364.04 19.71 363.87 19.24 363.71 18.72Q363.52 17.94 363.52 17.04C363.52 14.9 364.41 13.06 366.2 11.52C367.98 9.98 370.32 9.21 373.22 9.21C377.04 9.21 379.94 10.49 381.9 13.05C382.73 14.17 383.33 15.43 383.69 16.84L380.2 16.84C379.96 16.11 379.55 15.39 378.96 14.69C377.53 13.25 375.62 12.54 373.22 12.54C371.28 12.54 369.75 12.98 368.64 13.87Q367.61 14.68 367.23 15.74Q367.01 16.35 367.01 17.04C367.01 17.64 367.18 18.19 367.52 18.68C367.85 19.18 368.25 19.59 368.72 19.93C369.18 20.25 369.83 20.57 370.66 20.91C371.51 21.23 372.26 21.47 372.91 21.66C373.55 21.84 374.41 22.06 375.47 22.32C376.66 22.63 377.7 22.99 378.61 23.38C379.51 23.77 380.39 24.27 381.24 24.87C382.1 25.47 382.74 26.21 383.18 27.1C383.65 27.98 383.88 29 383.88 30.15C383.88 32.39 382.96 34.3 381.13 35.86Q378.37 38.17 373.6 38.17C369.44 38.17 366.33 36.74 364.26 33.87C363.35 32.64 362.72 31.21 362.36 29.56ZM473.46 29.56L476.95 29.56C477.23 30.55 477.7 31.44 478.34 32.22C479.79 33.97 481.91 34.85 484.7 34.85C486.93 34.85 488.61 34.4 489.75 33.51C490.91 32.63 491.49 31.51 491.49 30.15C491.49 29 491.03 28.09 490.1 27.41C489.16 26.73 487.85 26.14 486.14 25.65C485.83 25.54 485.33 25.4 484.63 25.22C483.95 25.03 483.42 24.89 483.04 24.79C482.65 24.68 482.13 24.53 481.49 24.32C480.84 24.11 480.32 23.93 479.93 23.77C479.55 23.59 479.08 23.36 478.54 23.1Q477.72 22.67 477.22 22.28C476.91 22.02 476.56 21.71 476.17 21.34C475.81 20.95 475.53 20.55 475.32 20.13C475.14 19.71 474.97 19.24 474.81 18.72C474.69 18.2 474.62 17.64 474.62 17.04Q474.62 15.87 474.97 14.83Q475.59 12.99 477.3 11.52C479.08 9.98 481.42 9.21 484.32 9.21C488.14 9.21 491.04 10.49 493 13.05C493.83 14.17 494.43 15.43 494.79 16.84L491.3 16.84Q490.95 15.75 490.06 14.69C488.63 13.25 486.72 12.54 484.32 12.54C482.38 12.54 480.85 12.98 479.74 13.87C478.65 14.73 478.11 15.79 478.11 17.04C478.11 17.64 478.28 18.19 478.62 18.68C478.95 19.18 479.35 19.59 479.82 19.93C480.28 20.25 480.93 20.57 481.76 20.91C482.61 21.23 483.36 21.47 484.01 21.66C484.65 21.84 485.51 22.06 486.57 22.32C487.76 22.63 488.8 22.99 489.71 23.38C490.61 23.77 491.49 24.27 492.34 24.87Q493.26 25.51 493.85 26.37L493.85 26.37Q494.1 26.71 494.28 27.1C494.75 27.98 494.98 29 494.98 30.15C494.98 32.39 494.06 34.3 492.23 35.86C490.39 37.4 487.88 38.17 484.7 38.17C480.54 38.17 477.43 36.74 475.36 33.87C474.45 32.64 473.82 31.21 473.46 29.56ZM504.47 29.56L507.96 29.56Q508.22 30.45 508.66 31.22Q508.97 31.75 509.36 32.22C510.81 33.97 512.93 34.85 515.72 34.85C517.94 34.85 519.62 34.4 520.76 33.51C521.92 32.63 522.51 31.51 522.51 30.15C522.51 29 522.04 28.09 521.11 27.41C520.18 26.73 518.86 26.14 517.15 25.65C516.84 25.54 516.34 25.4 515.64 25.22C514.97 25.03 514.44 24.89 514.05 24.79C513.66 24.68 513.15 24.53 512.5 24.32C511.85 24.11 511.34 23.93 510.95 23.77C510.56 23.59 510.09 23.36 509.55 23.1Q508.74 22.67 508.23 22.28C507.92 22.02 507.57 21.71 507.19 21.34C506.82 20.95 506.54 20.55 506.33 20.13C506.15 19.71 505.98 19.24 505.83 18.72C505.7 18.2 505.63 17.64 505.63 17.04Q505.63 15.87 505.99 14.83Q506.6 12.99 508.31 11.52C510.09 9.98 512.43 9.21 515.33 9.21Q519.42 9.21 522.09 11.15L522.09 11.16Q523.17 11.94 524.02 13.05C524.84 14.17 525.44 15.43 525.8 16.84L522.31 16.84Q521.96 15.75 521.07 14.69C519.65 13.25 517.73 12.54 515.33 12.54C513.39 12.54 511.87 12.98 510.75 13.87C509.67 14.73 509.12 15.79 509.12 17.04Q509.12 17.49 509.25 17.91Q509.38 18.31 509.63 18.68C509.96 19.18 510.37 19.59 510.83 19.93Q511.53 20.4 512.77 20.91C513.62 21.23 514.37 21.47 515.02 21.66C515.67 21.84 516.52 22.06 517.58 22.32C518.77 22.63 519.82 22.99 520.72 23.38C521.63 23.77 522.51 24.27 523.36 24.87Q524.27 25.51 524.87 26.37L524.87 26.37Q525.11 26.71 525.3 27.1C525.76 27.98 526 29 526 30.15C526 32.39 525.08 34.3 523.24 35.86C521.41 37.4 518.9 38.17 515.72 38.17Q511.41 38.17 508.59 36.12Q507.33 35.2 506.37 33.87C505.47 32.64 504.83 31.21 504.47 29.56ZM297.19 37.39L297.19 9.99L310.18 9.99Q313.1 9.99 315.08 11.35Q315.52 11.66 315.92 12.03C317.39 13.36 318.13 15.03 318.13 17.04Q318.13 18.89 317.34 20.29Q316.89 21.09 316.19 21.73C315.59 22.26 314.95 22.65 314.25 22.91L314.25 23.1C315.16 23.29 316 23.65 316.77 24.2C318.45 25.43 319.29 27.21 319.29 29.56C319.29 31.88 318.48 33.78 316.85 35.24Q314.41 37.39 309.98 37.39L297.19 37.39ZM330.35 27.02L330.35 9.99L333.84 9.99L333.84 27.02C333.84 29.42 334.5 31.32 335.82 32.73C337.14 34.14 338.87 34.85 341.02 34.85C343.16 34.85 344.9 34.14 346.22 32.73C347.53 31.32 348.19 29.42 348.19 27.02L348.19 9.99L351.68 9.99L351.68 27.02C351.68 30.41 350.7 33.12 348.74 35.16C346.8 37.17 344.22 38.17 341.02 38.17C337.81 38.17 335.23 37.17 333.26 35.16C331.32 33.12 330.35 30.41 330.35 27.02ZM394.92 37.39L394.92 9.99L398.41 9.99L398.41 37.39L394.92 37.39ZM410.82 37.39L410.82 9.99L415.86 9.99L429.21 33.08L429.28 33.08L429.25 32.69L429.25 9.99L432.74 9.99L432.74 37.39L427.69 37.39L414.35 14.3L414.27 14.3L414.31 14.69L414.31 37.35L410.82 37.39ZM445.13 37.39L445.13 9.99L464.14 9.99L464.14 13.32L448.62 13.32L448.62 21.93L461.23 21.93L461.23 25.26L448.62 25.26L448.62 34.06L464.14 34.06L464.14 37.39L445.13 37.39ZM300.68 21.54L309.98 21.54C311.43 21.54 312.57 21.16 313.4 20.4Q313.91 19.91 314.22 19.32Q314.64 18.48 314.64 17.43Q314.64 16.34 314.19 15.5Q313.89 14.94 313.4 14.49Q313.27 14.38 313.14 14.27L313.14 14.27Q311.94 13.32 309.98 13.32L300.68 13.32L300.68 21.54ZM300.68 34.06L309.98 34.06Q312.78 34.06 314.29 32.81Q315.01 32.21 315.39 31.44Q315.8 30.6 315.8 29.56Q315.8 28.22 315.21 27.22Q314.85 26.63 314.29 26.16Q312.82 24.87 309.98 24.87L300.68 24.87L300.68 34.06Z" fill="#2F2F2F" fill-opacity="1.000000" fill-rule="evenodd"/>
</svg>
