<svg width="32.000000" height="32.000000" viewBox="0 0 32 32" fill="none" xmlns="http://www.w3.org/2000/svg" xmlns:xlink="http://www.w3.org/1999/xlink">
	<desc>
			Created with Pixso.
	</desc>
	<defs>
		<clipPath id="clip1_994">
			<rect id="ant-design:skype-filled" width="32.000000" height="32.000000" fill="white" fill-opacity="0"/>
		</clipPath>
	</defs>
	<rect id="ant-design:skype-filled" width="32.000000" height="32.000000" fill="#FFFFFF" fill-opacity="0"/>
	<g clip-path="url(#clip1_994)">
		<path id="Vector" d="M27.61 18.08C27.74 17.37 27.81 16.65 27.81 15.94C27.81 14.34 27.5 12.8 26.88 11.34C26.29 9.94 25.43 8.67 24.35 7.59C23.27 6.51 22 5.65 20.6 5.06C19.14 4.44 17.6 4.13 16 4.13C15.25 4.13 14.5 4.2 13.77 4.35C12.76 3.81 11.63 3.53 10.48 3.53C8.62 3.53 6.86 4.25 5.54 5.57C4.89 6.22 4.38 6.99 4.02 7.84C3.67 8.69 3.49 9.6 3.5 10.51C3.5 11.7 3.8 12.87 4.37 13.9C4.26 14.57 4.2 15.25 4.2 15.94C4.2 17.53 4.51 19.08 5.12 20.53C5.72 21.94 6.57 23.2 7.65 24.28C8.74 25.37 10 26.22 11.4 26.81C12.86 27.43 14.4 27.74 16 27.74C16.69 27.74 17.39 27.68 18.07 27.55C19.11 28.14 20.29 28.46 21.5 28.46C23.37 28.46 25.13 27.74 26.45 26.41C27.77 25.1 28.49 23.34 28.49 21.47C28.5 20.29 28.19 19.11 27.61 18.08ZM16.05 23.17C11.85 23.17 9.98 21.1 9.98 19.56C9.98 18.77 10.56 18.21 11.37 18.21C13.16 18.21 12.7 20.79 16.05 20.79C17.76 20.79 18.71 19.86 18.71 18.91C18.71 18.34 18.43 17.7 17.3 17.42L13.57 16.49C10.56 15.74 10.02 14.11 10.02 12.59C10.02 9.42 13 8.23 15.8 8.23C18.39 8.23 21.43 9.65 21.43 11.55C21.43 12.37 20.72 12.84 19.92 12.84C18.39 12.84 18.67 10.72 15.58 10.72C14.05 10.72 13.2 11.42 13.2 12.41C13.2 13.4 14.41 13.71 15.46 13.95L18.23 14.57C21.25 15.24 22.02 17.01 22.02 18.67C22.02 21.24 20.04 23.17 16.05 23.17Z" fill="#F96D6B" fill-opacity="1.000000" fill-rule="nonzero"/>
	</g>
</svg>
