<svg width="32.000000" height="32.000000" viewBox="0 0 32 32" fill="none" xmlns="http://www.w3.org/2000/svg" xmlns:xlink="http://www.w3.org/1999/xlink">
	<desc>
			Created with Pixso.
	</desc>
	<defs>
		<clipPath id="clip1_988">
			<rect id="fluent:mail-24-filled" width="32.000000" height="32.000000" fill="white" fill-opacity="0"/>
		</clipPath>
	</defs>
	<rect id="fluent:mail-24-filled" width="32.000000" height="32.000000" fill="#FFFFFF" fill-opacity="0"/>
	<g clip-path="url(#clip1_988)">
		<path id="Vector" d="M29.33 11.47L29.33 22.33C29.33 23.44 28.9 24.5 28.14 25.3C27.38 26.11 26.35 26.59 25.24 26.65L25 26.66L7 26.66C5.89 26.66 4.82 26.24 4.02 25.48C3.21 24.72 2.73 23.68 2.67 22.57L2.66 22.33L2.66 11.47L15.53 18.21C15.67 18.29 15.83 18.33 16 18.33C16.16 18.33 16.32 18.29 16.46 18.21L29.33 11.47ZM7 5.33L25 5.33C26.07 5.33 27.11 5.73 27.9 6.45C28.7 7.17 29.2 8.16 29.31 9.23L16 16.2L2.68 9.23C2.79 8.2 3.25 7.25 4 6.53C4.74 5.82 5.72 5.39 6.75 5.33L7 5.33L25 5.33L7 5.33Z" fill="#F96D6B" fill-opacity="1.000000" fill-rule="nonzero"/>
	</g>
</svg>
