<svg width="32.000000" height="32.000000" viewBox="0 0 32 32" fill="none" xmlns="http://www.w3.org/2000/svg" xmlns:xlink="http://www.w3.org/1999/xlink">
	<desc>
			Created with Pixso.
	</desc>
	<defs>
		<clipPath id="clip1_975">
			<rect id="Frame 4" width="32.000000" height="32.000000" fill="white" fill-opacity="0"/>
		</clipPath>
	</defs>
	<g clip-path="url(#clip1_975)">
		<path id="Vector" d="M11.03 4.01C12.83 3.99 14.63 4.01 16.43 4C18.57 4 20.7 3.98 22.84 4.01C23.5 4.03 24.16 4.21 24.73 4.57C25.27 4.91 25.72 5.39 26.06 5.94C26.45 6.54 26.66 7.25 26.66 7.97C26.65 9.11 26.2 10.27 25.36 11.02C24.82 11.52 24.14 11.87 23.42 12C23.1 12.06 22.77 12.09 22.44 12.08C20.4 12.08 18.36 12.08 16.32 12.09C16.02 12.09 15.7 12.07 15.44 12.25C15.23 12.4 15.17 12.69 15.17 12.94C15.17 14.67 15.17 16.41 15.17 18.14C15.17 18.3 15.19 18.47 15.13 18.62C15.09 18.7 15 18.65 14.94 18.62C13.41 17.73 11.88 16.85 10.36 15.96C9.64 15.54 8.91 15.16 8.22 14.71C7.65 14.34 7.12 13.9 6.69 13.36C5.84 12.27 5.32 10.88 5.33 9.46C5.36 7.97 6 6.51 7.05 5.52C7.53 5.06 8.08 4.67 8.68 4.43C9.17 4.23 9.68 4.09 10.21 4.04C10.48 4.02 10.75 4.02 11.03 4.01Z" fill="#F96D6B" fill-opacity="1.000000" fill-rule="nonzero"/>
		<path id="Vector" d="M16.88 13.34C16.95 13.3 17.03 13.36 17.09 13.39C17.63 13.7 18.16 14.01 18.7 14.31C19.37 14.71 20.05 15.07 20.72 15.46C21.36 15.83 21.99 16.21 22.62 16.57C23.5 17.07 24.4 17.56 25.08 18.33C25.46 18.74 25.73 19.23 26 19.72C26.13 19.98 26.27 20.25 26.34 20.54C26.4 20.78 26.45 21.01 26.52 21.24C26.66 21.66 26.66 22.11 26.66 22.54C26.67 22.9 26.62 23.26 26.54 23.61C26.4 24.19 26.21 24.77 25.91 25.28C25.57 25.84 25.14 26.34 24.65 26.76C23.91 27.38 23 27.76 22.07 27.92C21.54 28.02 21 27.99 20.47 27.99C16.88 27.98 13.28 28 9.69 27.99C9.18 28 8.66 27.98 8.16 27.82C7.43 27.61 6.77 27.14 6.27 26.55C5.88 26.1 5.62 25.55 5.46 24.98C5.1 23.66 5.48 22.17 6.39 21.2C6.91 20.64 7.56 20.2 8.3 20.06C8.92 19.95 9.54 19.9 10.17 19.9C12.12 19.89 14.08 19.9 16.03 19.89C16.25 19.89 16.5 19.84 16.65 19.66C16.8 19.47 16.82 19.21 16.82 18.98C16.82 17.23 16.82 15.48 16.82 13.73C16.83 13.6 16.81 13.46 16.88 13.34Z" fill="#F96D6B" fill-opacity="1.000000" fill-rule="nonzero"/>
	</g>
</svg>
